<svg id="Blog_Pic_extend" data-name="Blog Pic extend" xmlns="http://www.w3.org/2000/svg" viewBox="0 0 514 200"><defs><style>.cls-1,.cls-2,.cls-3,.cls-4{fill:#9ed4db;}.cls-14,.cls-2{opacity:0.75;}.cls-3{opacity:0.5;}.cls-4{opacity:0.25;}.cls-5{fill:#dcb7a2;}.cls-6{fill:#2487c7;}.cls-7{fill:#64bde3;}.cls-8{fill:#ffe1bf;}.cls-9{fill:#d6bea3;}.cls-10{fill:#b29886;}.cls-11{fill:#deb2a0;}.cls-12{fill:#781b22;}.cls-13{fill:#fff;}.cls-14{fill:#ab1f23;}.cls-15{fill:#010101;}.cls-16,.cls-25{fill:#e6e6e5;}.cls-17{fill:#cdcccc;}.cls-18{fill:#c2e8fb;}.cls-19{fill:#e1f4fd;}.cls-20{fill:#b4b4b4;}.cls-21{fill:#c59c6d;}.cls-22{fill:#333;}.cls-23{fill:#1a1a1a;}.cls-24{fill:#24b574;}.cls-25{font-size:1.12px;font-family:Consolas;}</style></defs><title>blog-pic-may-16-extend</title><rect class="cls-1" x="-0.49" y="-0.09" width="514.2" height="178.54"/><rect class="cls-2" x="-0.2" y="178.45" width="514.2" height="8.65"/><rect class="cls-3" x="-0.2" y="187.09" width="514.2" height="8.65"/><rect class="cls-4" x="-0.2" y="195.77" width="514.2" height="4.33"/><ellipse class="cls-5" cx="118.92" cy="94.06" rx="5.63" ry="6.15"/><path class="cls-6" d="M178.15,178.11c0-.63,0-24.67-0.07-25.3-1.06-15.44-15-29.31-32-29.31s-30.9,13.87-32,29.31c0,0.63-.07,24.66-0.07,25.3,0,0,14.21.24,31.9,0.24S178.15,178.11,178.15,178.11Z"/><path class="cls-7" d="M161,150.25l-15-4.8-15,4.8V121.82a2.46,2.46,0,0,1,2.46-2.46h24.58a2.91,2.91,0,0,1,2.91,2.91v28Z"/><path class="cls-8" d="M154.28,138.81c-2.83.36-4.35,6.34-7.93,6.4-3.78.06-5.69-5.3-8.34-6.4-1.33-.55,0-17,0-17h16.28S155.31,138.68,154.28,138.81Z"/><ellipse class="cls-5" cx="173.71" cy="94.06" rx="5.63" ry="6.15"/><path class="cls-8" d="M147.51,127.53h-2.58c-14.43,0-26.23-12.9-26.23-29.91V85.17c0-17,11.8-30.92,26.23-30.92h2.58c14.43,0,26.23,13.91,26.23,30.92V97.62C173.74,114.63,161.94,127.53,147.51,127.53Z"/><path class="cls-9" d="M147.48,127.53H144.9c-14.43,0-26.23-9.35-26.23-26.35v-1L146,100h2.58l25.14,0.19v1C173.71,118.18,161.91,127.53,147.48,127.53Z"/><ellipse class="cls-10" cx="132.84" cy="84.22" rx="2.65" ry="3.12"/><ellipse class="cls-10" cx="159.34" cy="84.22" rx="2.65" ry="3.12"/><path class="cls-11" d="M145.14,84.42h2.17a2.87,2.87,0,0,1,2.87,2.87v7.45a2.88,2.88,0,0,1-2.88,2.88h-2.17a2.87,2.87,0,0,1-2.87-2.87V87.29a2.87,2.87,0,0,1,2.87-2.87Z"/><path class="cls-12" d="M158.19,101.06c0,7.79-5.36,14.11-12,14.11s-12-6.32-12-14.11"/><path class="cls-13" d="M158.19,101.06a11.76,11.76,0,0,1-.78,5H135a14.07,14.07,0,0,1-.78-5"/><path class="cls-14" d="M151.59,113.63a10,10,0,0,1-5.37,1.54,10.07,10.07,0,0,1-5.37-1.54c-0.58-.44,2.4-4.47,5.37-4.47S152.29,113.19,151.59,113.63Z"/><path class="cls-15" d="M173.74,72.09V85.37l-2.27,0c0-11.94-16.43-14.2-25.28-14.2-9.68,0-24.5,2.1-25.37,14.24H118.7s0.88-11.66.88-13.29c0-8.69,13.75-28.35,26.61-22.37C155.21,53.9,173.74,63.4,173.74,72.09Z"/><circle class="cls-7" cx="146.11" cy="148.99" r="1.41"/><circle class="cls-7" cx="146.11" cy="154.94" r="1.41"/><circle class="cls-7" cx="146.11" cy="160.9" r="1.41"/><circle class="cls-7" cx="146.11" cy="166.86" r="1.41"/><circle class="cls-7" cx="146.11" cy="172.81" r="1.41"/><rect class="cls-16" x="259.18" y="44.56" width="157.41" height="82.33"/><rect class="cls-17" x="263.42" y="47.48" width="148.93" height="76.48"/><rect class="cls-16" x="265.23" y="49.03" width="145.31" height="73.74"/><rect class="cls-18" x="265.83" y="49.89" width="144.11" height="72.02"/><g id="Cloud"><circle class="cls-19" cx="294.17" cy="70.48" r="8.97"/><circle class="cls-19" cx="304.5" cy="70.48" r="8.97"/><circle class="cls-19" cx="303.14" cy="61.51" r="8.97"/><circle class="cls-19" cx="317.09" cy="62.6" r="8.97"/><circle class="cls-19" cx="313.67" cy="70.48" r="8.97"/><circle class="cls-19" cx="325.07" cy="70.48" r="8.97"/></g><g id="Cloud-2" data-name="Cloud"><circle class="cls-19" cx="315.77" cy="86.45" r="8.89"/><circle class="cls-19" cx="326.01" cy="89.33" r="8.89"/><circle class="cls-19" cx="324.66" cy="77.56" r="8.89"/><circle class="cls-19" cx="340.53" cy="80.44" r="8.89"/><circle class="cls-19" cx="336.15" cy="90.68" r="8.89" transform="translate(-11.94 97.82) rotate(-16.27)"/><circle class="cls-19" cx="346.4" cy="86.45" r="8.89"/></g><rect class="cls-20" x="306.96" y="49.89" width="3.98" height="72.02"/><rect class="cls-21" x="248.28" y="168.85" width="172.44" height="9.59"/><g id="Coffee_Mug" data-name="Coffee Mug"><path class="cls-17" d="M265.22,151.49a2.39,2.39,0,0,1-.19,1.33l-0.14.3-0.3-.64a2.16,2.16,0,0,1-.18-0.6l-0.17-1.18a5.65,5.65,0,0,1,0-1.82l0.5-2.71a4.59,4.59,0,0,0-.11-2.13l-0.14-.48a0.84,0.84,0,0,1,0-.54l0.32-.83,0.41,1,0,0.11,0.2,0.68a4.6,4.6,0,0,1,.17,2.14l-0.56,2.71a5.65,5.65,0,0,0,0,1.81Z"/><path class="cls-17" d="M271.24,151.49a2.39,2.39,0,0,1-.19,1.33l-0.14.3-0.3-.64a2.16,2.16,0,0,1-.18-0.6l-0.17-1.18a5.65,5.65,0,0,1,0-1.82l0.5-2.71a4.59,4.59,0,0,0-.11-2.13l-0.14-.48a0.84,0.84,0,0,1,0-.54l0.32-.83,0.41,1,0,0.11,0.2,0.68a4.6,4.6,0,0,1,.17,2.14l-0.56,2.71a5.65,5.65,0,0,0,0,1.81Z"/><path class="cls-17" d="M268.34,150.31a2.82,2.82,0,0,1-.19,1.45l-0.14.32-0.3-.7a2.52,2.52,0,0,1-.18-0.66l-0.17-1.29a6.71,6.71,0,0,1,0-2l0.5-3a5.44,5.44,0,0,0-.11-2.33l-0.14-.52a1,1,0,0,1,0-.59l0.32-.91,0.41,1.14,0,0.12,0.2,0.74a5.46,5.46,0,0,1,.17,2.34l-0.56,3a6.71,6.71,0,0,0,0,2Z"/><rect class="cls-22" x="262.05" y="153.36" width="12.11" height="15.5" rx="3.19" ry="3.19"/><path class="cls-22" d="M273.79,156.25V157a0.35,0.35,0,0,0,.35.35h3.29a0.35,0.35,0,0,1,.35.35v7.65a0.35,0.35,0,0,1-.35.35h-3.29a0.35,0.35,0,0,0-.35.35v0.75a0.35,0.35,0,0,0,.35.35h4.74a0.35,0.35,0,0,0,.35-0.35V156.25a0.35,0.35,0,0,0-.35-0.35h-4.74A0.35,0.35,0,0,0,273.79,156.25Z"/></g><g id="Computer"><rect class="cls-20" x="288.38" y="167.21" width="57.42" height="1.65"/><rect class="cls-17" x="288.78" y="124.94" width="57.42" height="42.31" rx="2.39" ry="2.39"/><rect class="cls-23" x="289.54" y="125.53" width="55.91" height="41.13" rx="1.67" ry="1.67"/><rect class="cls-24" x="290.97" y="127.04" width="53.05" height="38.1"/><rect class="cls-22" x="295.33" y="134.36" width="18.34" height="11.73"/><text class="cls-25" transform="translate(295.92 144.12)">$ cd ..<tspan x="0" y="1.35">$ ls</tspan></text></g></svg>