<svg id="Blog_Pic" data-name="Blog Pic" xmlns="http://www.w3.org/2000/svg" viewBox="0 0 323.5 200"><defs><style>.cls-1,.cls-2,.cls-3,.cls-4{fill:#9ed4db;}.cls-14,.cls-2{opacity:0.75;}.cls-3{opacity:0.5;}.cls-4{opacity:0.25;}.cls-5{fill:#dcb7a2;}.cls-6{fill:#2487c7;}.cls-7{fill:#64bde3;}.cls-8{fill:#ffe1bf;}.cls-9{fill:#d6bea3;}.cls-10{fill:#b29886;}.cls-11{fill:#deb2a0;}.cls-12{fill:#781b22;}.cls-13{fill:#fff;}.cls-14{fill:#ab1f23;}.cls-15{fill:#010101;}.cls-16,.cls-25{fill:#e6e6e5;}.cls-17{fill:#cdcccc;}.cls-18{fill:#c2e8fb;}.cls-19{fill:#e1f4fd;}.cls-20{fill:#b4b4b4;}.cls-21{fill:#c59c6d;}.cls-22{fill:#333;}.cls-23{fill:#1a1a1a;}.cls-24{fill:#24b574;}.cls-25{font-size:1.12px;font-family:Consolas;}</style></defs><title>blog-pic-may-16</title><rect class="cls-1" y="-0.45" width="323.68" height="178.54"/><rect class="cls-2" x="0.18" y="178.09" width="323.68" height="8.65"/><rect class="cls-3" x="0.18" y="186.73" width="323.68" height="8.65"/><rect class="cls-4" x="0.18" y="195.4" width="323.68" height="4.33"/><ellipse class="cls-5" cx="14.13" cy="93.69" rx="5.63" ry="6.15"/><path class="cls-6" d="M73.36,177.75c0-.63,0-24.67-0.07-25.3-1.06-15.44-15-29.31-32-29.31s-30.9,13.87-32,29.31c0,0.63-.07,24.66-0.07,25.3,0,0,14.21.24,31.9,0.24S73.36,177.75,73.36,177.75Z"/><path class="cls-7" d="M56.17,149.89l-15-4.8-15,4.8V121.46A2.46,2.46,0,0,1,28.69,119H53.27a2.91,2.91,0,0,1,2.91,2.91v28Z"/><path class="cls-8" d="M49.49,138.45c-2.83.36-4.35,6.34-7.93,6.4-3.78.06-5.69-5.3-8.34-6.4-1.33-.55,0-17,0-17H49.49S50.52,138.32,49.49,138.45Z"/><ellipse class="cls-5" cx="68.92" cy="93.69" rx="5.63" ry="6.15"/><path class="cls-8" d="M42.71,127.17H40.13c-14.43,0-26.23-12.9-26.23-29.91V84.81c0-17,11.8-30.92,26.23-30.92h2.58c14.43,0,26.23,13.91,26.23,30.92V97.26C68.94,114.26,57.14,127.17,42.71,127.17Z"/><path class="cls-9" d="M42.69,127.17H40.11c-14.43,0-26.23-9.35-26.23-26.35v-1l27.32-.19h2.58l25.14,0.19v1C68.92,117.82,57.11,127.17,42.69,127.17Z"/><ellipse class="cls-10" cx="28.04" cy="83.86" rx="2.65" ry="3.12"/><ellipse class="cls-10" cx="54.54" cy="83.86" rx="2.65" ry="3.12"/><path class="cls-11" d="M40.34,84.06h2.17a2.87,2.87,0,0,1,2.87,2.87v7.45a2.88,2.88,0,0,1-2.88,2.88H40.34a2.87,2.87,0,0,1-2.87-2.87V86.93a2.87,2.87,0,0,1,2.87-2.87Z"/><path class="cls-12" d="M53.4,100.7c0,7.79-5.36,14.11-12,14.11s-12-6.32-12-14.11"/><path class="cls-13" d="M53.4,100.7a11.76,11.76,0,0,1-.78,5H30.23a14.07,14.07,0,0,1-.78-5"/><path class="cls-14" d="M46.79,113.27a10,10,0,0,1-5.37,1.54,10.07,10.07,0,0,1-5.37-1.54c-0.58-.44,2.4-4.47,5.37-4.47S47.5,112.83,46.79,113.27Z"/><path class="cls-15" d="M68.94,71.72V85l-2.27,0c0-11.94-16.43-14.2-25.28-14.2C31.72,70.77,16.9,72.88,16,85H13.9s0.88-11.66.88-13.29c0-8.69,13.75-28.35,26.61-22.37C50.42,53.54,68.94,63,68.94,71.72Z"/><circle class="cls-7" cx="41.31" cy="148.63" r="1.41"/><circle class="cls-7" cx="41.31" cy="154.58" r="1.41"/><circle class="cls-7" cx="41.31" cy="160.54" r="1.41"/><circle class="cls-7" cx="41.31" cy="166.49" r="1.41"/><circle class="cls-7" cx="41.31" cy="172.45" r="1.41"/><rect class="cls-16" x="154.39" y="44.19" width="157.41" height="82.33"/><rect class="cls-17" x="158.63" y="47.12" width="148.93" height="76.48"/><rect class="cls-16" x="160.43" y="48.67" width="145.31" height="73.74"/><rect class="cls-18" x="161.04" y="49.53" width="144.11" height="72.02"/><g id="Cloud"><circle class="cls-19" cx="189.37" cy="70.12" r="8.97"/><circle class="cls-19" cx="199.7" cy="70.12" r="8.97"/><circle class="cls-19" cx="198.34" cy="61.15" r="8.97"/><circle class="cls-19" cx="212.29" cy="62.24" r="8.97"/><circle class="cls-19" cx="208.87" cy="70.12" r="8.97"/><circle class="cls-19" cx="220.28" cy="70.12" r="8.97"/></g><g id="Cloud-2" data-name="Cloud"><circle class="cls-19" cx="239.97" cy="86.09" r="8.89"/><circle class="cls-19" cx="250.21" cy="88.97" r="8.89"/><circle class="cls-19" cx="248.86" cy="77.2" r="8.89"/><circle class="cls-19" cx="264.73" cy="80.08" r="8.89"/><circle class="cls-19" cx="260.34" cy="90.31" r="8.89" transform="translate(-14.88 76.57) rotate(-16.27)"/><circle class="cls-19" cx="270.6" cy="86.09" r="8.89"/></g><rect class="cls-20" x="231.16" y="49.53" width="3.98" height="72.02"/><rect class="cls-21" x="143.48" y="168.49" width="172.44" height="9.59"/><g id="Coffee_Mug" data-name="Coffee Mug"><path class="cls-17" d="M160.42,151.13a2.39,2.39,0,0,1-.19,1.33l-0.14.3-0.3-.64a2.16,2.16,0,0,1-.18-0.6l-0.17-1.18a5.65,5.65,0,0,1,0-1.82l0.5-2.71a4.59,4.59,0,0,0-.11-2.13l-0.14-.48a0.84,0.84,0,0,1,0-.54l0.32-.83,0.41,1,0,0.11,0.2,0.68a4.6,4.6,0,0,1,.17,2.14l-0.56,2.71a5.65,5.65,0,0,0,0,1.81Z"/><path class="cls-17" d="M166.45,151.13a2.39,2.39,0,0,1-.19,1.33l-0.14.3-0.3-.64a2.16,2.16,0,0,1-.18-0.6l-0.17-1.18a5.65,5.65,0,0,1,0-1.82l0.5-2.71a4.59,4.59,0,0,0-.11-2.13l-0.14-.48a0.84,0.84,0,0,1,0-.54l0.32-.83,0.41,1,0,0.11,0.2,0.68a4.6,4.6,0,0,1,.17,2.14l-0.56,2.71a5.65,5.65,0,0,0,0,1.81Z"/><path class="cls-17" d="M163.54,149.95a2.82,2.82,0,0,1-.19,1.45l-0.14.32-0.3-.7a2.52,2.52,0,0,1-.18-0.66l-0.17-1.29a6.71,6.71,0,0,1,0-2l0.5-3a5.44,5.44,0,0,0-.11-2.33l-0.14-.52a1,1,0,0,1,0-.59l0.32-.91,0.41,1.14,0,0.12,0.2,0.74a5.46,5.46,0,0,1,.17,2.34l-0.56,3a6.71,6.71,0,0,0,0,2Z"/><rect class="cls-22" x="157.25" y="152.99" width="12.11" height="15.5" rx="3.19" ry="3.19"/><path class="cls-22" d="M169,155.89v0.75a0.35,0.35,0,0,0,.35.35h3.29a0.35,0.35,0,0,1,.35.35V165a0.35,0.35,0,0,1-.35.35h-3.29a0.35,0.35,0,0,0-.35.35v0.75a0.35,0.35,0,0,0,.35.35h4.74a0.35,0.35,0,0,0,.35-0.35V155.89a0.35,0.35,0,0,0-.35-0.35h-4.74A0.35,0.35,0,0,0,169,155.89Z"/></g><g id="Computer"><rect class="cls-20" x="183.58" y="166.84" width="57.42" height="1.65"/><rect class="cls-17" x="183.99" y="124.58" width="57.42" height="42.31" rx="2.39" ry="2.39"/><rect class="cls-23" x="184.74" y="125.17" width="55.91" height="41.13" rx="1.67" ry="1.67"/><rect class="cls-24" x="186.17" y="126.68" width="53.05" height="38.1"/><rect class="cls-22" x="190.53" y="134" width="18.34" height="11.73"/><text class="cls-25" transform="translate(191.12 143.76)">$ cd ..<tspan x="0" y="1.35">$ ls</tspan></text></g></svg>