<svg id="Content" xmlns="http://www.w3.org/2000/svg" viewBox="0 0 200 200"><defs><style>.cls-1{fill:#414042;}.cls-2{fill:#d1d3d4;}</style></defs><title>Personal Site Mockup 2</title><path class="cls-1" d="M9,122.86l17-48.4c3.23-9.19,10.82-15.17,19.22-15.17H58.21A15.44,15.44,0,0,1,69.15,64l8,8.08h37.27l8.91-8.26a16.47,16.47,0,0,1,11.21-4.58h20c6.66,0,12.67,4.74,15.23,12L188,122.93c3.58,10.16-4.91,20.42-13.57,16.41l-22.24-19.72a12.78,12.78,0,0,0-8.48-3.22H56.19a12.78,12.78,0,0,0-8.08,2.87l-25.3,20.61C13.91,143.76,5.38,133.22,9,122.86Z"/><circle class="cls-2" cx="149.8" cy="80.73" r="4.75"/><circle class="cls-2" cx="149.8" cy="95.82" r="4.75"/><circle class="cls-2" cx="157.35" cy="88.27" r="4.75"/><circle class="cls-2" cx="142.26" cy="88.27" r="4.75"/><rect class="cls-2" x="38.12" y="84.46" width="22.56" height="7.62" rx="1.06" ry="1.06"/><rect class="cls-2" x="38.12" y="84.46" width="22.56" height="7.62" rx="1.06" ry="1.06" transform="translate(137.67 38.87) rotate(90)"/></svg>