<svg id="Content" xmlns="http://www.w3.org/2000/svg" viewBox="0 0 200 200"><defs><style>.cls-1{fill:#414042;}</style></defs><title>ink-and-pen</title><path class="cls-1" d="M93.56,194h57a9.51,9.51,0,0,0,8.64-13.46l-14.74-32.19a12,12,0,0,0-10.88-7h-16.5v-9.51h5.47a5.5,5.5,0,0,0,5.49-5.39l0.27-14.38a5.5,5.5,0,0,0-5.49-5.6H64.28a5.5,5.5,0,0,0-5.49,5.6l0.27,14.38a5.5,5.5,0,0,0,5.49,5.39H70v9.51H53.52a12,12,0,0,0-10.88,7L27.9,180.57A9.51,9.51,0,0,0,36.55,194h57Z"/><path class="cls-1" d="M91.34,99.81l0.6-8.12c0.59-7.89,5.58-22.77,5.58-22.77l16.63,2.45s-15.18-5.19-15-5.54c2-3.72,5.49-9.88,8.17-13.23L117.42,40a71.81,71.81,0,0,1,6.82-7.38c0.34-.32,14.79,1.81,14.79,1.81s-13.21-3.25-12.92-3.5a71.81,71.81,0,0,1,23.65-13.8L173,9l-0.49,3.52A104.23,104.23,0,0,1,145.17,69.6l-10.38,11A69.28,69.28,0,0,1,113.93,95.8l-17.08,8.07-1.68-1.24L169.6,13,93.24,101.21Z"/><path class="cls-1" d="M95.46,102.39s-3.81,4-4.52,5.55,1.35,0.87,1.35.87l4.12-5.89Z"/></svg>