<svg id="Logo" xmlns="http://www.w3.org/2000/svg" viewBox="0 0 200 200"><defs><style>.cls-1{fill:#58595b;}.cls-2{fill:#2bb673;}</style></defs><title>NR</title><rect class="cls-1" x="8.67" y="139.27" width="20.37" height="20.37"/><rect class="cls-1" x="29.04" y="78.16" width="20.37" height="20.37"/><rect class="cls-1" x="49.41" y="98.53" width="20.37" height="20.37"/><rect class="cls-1" x="69.78" y="139.27" width="20.37" height="20.37"/><rect class="cls-1" x="110.52" y="139.27" width="20.37" height="20.37"/><rect class="cls-1" x="151.26" y="118.9" width="20.37" height="20.37"/><rect class="cls-1" x="171.63" y="98.53" width="20.37" height="20.37"/><rect class="cls-1" x="151.26" y="57.79" width="20.37" height="20.37"/><rect class="cls-1" x="130.89" y="57.79" width="20.37" height="20.37"/><rect class="cls-1" x="171.63" y="139.27" width="20.37" height="20.37"/><rect class="cls-2" x="8.67" y="57.79" width="20.37" height="20.37"/><rect class="cls-2" x="8.67" y="78.16" width="20.37" height="20.37"/><rect class="cls-2" x="8.67" y="98.53" width="20.37" height="20.37"/><rect class="cls-2" x="8.67" y="118.9" width="20.37" height="20.37"/><rect class="cls-2" x="8.67" y="37.42" width="20.37" height="20.37"/><rect class="cls-2" x="29.04" y="57.79" width="20.37" height="20.37"/><rect class="cls-2" x="49.41" y="78.16" width="20.37" height="20.37"/><rect class="cls-2" x="69.78" y="118.9" width="20.37" height="20.37"/><rect class="cls-2" x="69.78" y="98.53" width="20.37" height="20.37"/><rect class="cls-2" x="69.78" y="78.16" width="20.37" height="20.37"/><rect class="cls-2" x="69.78" y="57.79" width="20.37" height="20.37"/><rect class="cls-2" x="69.78" y="37.42" width="20.37" height="20.37"/><rect class="cls-2" x="110.52" y="57.79" width="20.37" height="20.37"/><rect class="cls-2" x="110.52" y="78.16" width="20.37" height="20.37"/><rect class="cls-2" x="110.52" y="98.53" width="20.37" height="20.37"/><rect class="cls-2" x="110.52" y="118.9" width="20.37" height="20.37"/><rect class="cls-2" x="110.52" y="37.42" width="20.37" height="20.37"/><rect class="cls-2" x="130.89" y="37.42" width="20.37" height="20.37"/><rect class="cls-2" x="171.63" y="118.9" width="20.37" height="20.37"/><rect class="cls-2" x="171.63" y="78.16" width="20.37" height="20.37"/><rect class="cls-2" x="151.26" y="98.53" width="20.37" height="20.37"/><rect class="cls-2" x="151.26" y="37.42" width="20.37" height="20.37"/><rect class="cls-2" x="171.63" y="57.79" width="20.37" height="20.37"/></svg>