<svg id="Logo" xmlns="http://www.w3.org/2000/svg" viewBox="0 0 200 200"><defs><style>.cls-1{fill:#fbb040;}.cls-2{fill:#58595b;}.cls-3{fill:#f1f2f2;}.cls-4{fill:#27aae1;}</style></defs><title>pixel-yag-logo</title><rect class="cls-1" x="53.07" y="6.14" width="15.64" height="15.64"/><rect class="cls-1" x="37.43" y="6.14" width="15.64" height="15.64"/><rect class="cls-1" x="68.71" y="6.14" width="15.64" height="15.64"/><rect class="cls-1" x="84.36" y="6.14" width="15.64" height="15.64"/><rect class="cls-1" x="84.36" y="21.78" width="15.64" height="15.64"/><rect class="cls-1" x="68.71" y="37.43" width="15.64" height="15.64"/><rect class="cls-1" x="68.71" y="37.43" width="15.64" height="15.64"/><rect class="cls-1" x="84.36" y="53.07" width="15.64" height="15.64"/><rect class="cls-1" x="37.43" y="84.36" width="15.64" height="15.64"/><rect class="cls-1" x="37.43" y="68.71" width="15.64" height="15.64"/><rect class="cls-1" x="53.07" y="37.43" width="15.64" height="15.64"/><rect class="cls-1" x="53.07" y="21.78" width="15.64" height="15.64"/><rect class="cls-1" x="84.36" y="68.71" width="15.64" height="15.64"/><rect class="cls-1" x="68.71" y="68.71" width="15.64" height="15.64"/><rect class="cls-1" x="37.43" y="21.78" width="15.64" height="15.64"/><rect class="cls-1" x="37.43" y="37.43" width="15.64" height="15.64"/><rect class="cls-1" x="68.71" y="21.78" width="15.64" height="15.64"/><rect class="cls-1" x="84.36" y="84.36" width="15.64" height="15.64"/><rect class="cls-1" x="68.71" y="84.36" width="15.64" height="15.64"/><rect class="cls-1" x="37.43" y="100" width="15.64" height="15.64"/><rect class="cls-1" x="84.36" y="100" width="15.64" height="15.64"/><rect class="cls-1" x="68.71" y="100" width="15.64" height="15.64"/><rect class="cls-1" x="100" y="6.14" width="15.64" height="15.64"/><rect class="cls-1" x="100" y="21.78" width="15.64" height="15.64"/><rect class="cls-1" x="100" y="37.43" width="15.64" height="15.64"/><rect class="cls-1" x="100" y="53.07" width="15.64" height="15.64"/><rect class="cls-1" x="100" y="68.71" width="15.64" height="15.64"/><rect class="cls-1" x="100" y="84.36" width="15.64" height="15.64"/><rect class="cls-1" x="100" y="100" width="15.64" height="15.64"/><rect class="cls-1" x="21.78" y="6.14" width="15.64" height="15.64"/><rect class="cls-1" x="21.78" y="21.78" width="15.64" height="15.64"/><rect class="cls-1" x="37.43" y="37.43" width="15.64" height="15.64"/><rect class="cls-1" x="21.78" y="53.07" width="15.64" height="15.64"/><rect class="cls-1" x="21.78" y="68.71" width="15.64" height="15.64"/><rect class="cls-1" x="21.78" y="84.36" width="15.64" height="15.64"/><rect class="cls-1" x="21.78" y="100" width="15.64" height="15.64"/><rect class="cls-1" x="6.14" y="6.14" width="15.64" height="15.64"/><rect class="cls-1" x="6.14" y="6.14" width="109.5" height="109.5"/><rect class="cls-1" x="6.14" y="21.78" width="15.64" height="15.64"/><rect class="cls-1" x="6.14" y="37.43" width="15.64" height="15.64"/><rect class="cls-1" x="6.14" y="53.07" width="15.64" height="15.64"/><rect class="cls-1" x="6.14" y="68.71" width="15.64" height="15.64"/><rect class="cls-1" x="6.14" y="84.36" width="15.64" height="15.64"/><rect class="cls-1" x="6.14" y="100" width="15.64" height="15.64"/><rect class="cls-2" x="21.78" y="37.43" width="15.64" height="15.64"/><rect class="cls-2" x="68.71" y="53.07" width="15.64" height="15.64"/><rect class="cls-2" x="37.43" y="53.07" width="15.64" height="15.64"/><rect class="cls-2" x="84.36" y="37.43" width="15.64" height="15.64"/><rect class="cls-2" x="53.07" y="100" width="15.64" height="15.64"/><rect class="cls-3" x="37.43" y="37.43" width="15.64" height="15.64"/><rect class="cls-3" x="53.07" y="53.07" width="15.64" height="15.64"/><rect class="cls-3" x="53.07" y="68.71" width="15.64" height="15.64"/><rect class="cls-3" x="53.07" y="53.07" width="15.64" height="46.93"/><rect class="cls-3" x="84.36" y="21.94" width="15.64" height="15.64"/><rect class="cls-3" x="21.78" y="21.94" width="15.64" height="15.64"/><rect class="cls-3" x="68.71" y="37.43" width="15.64" height="15.64"/><rect class="cls-4" x="131.29" y="84.36" width="15.64" height="15.64"/><rect class="cls-4" x="115.64" y="84.36" width="15.64" height="15.64"/><rect class="cls-4" x="146.93" y="84.36" width="15.64" height="15.64"/><rect class="cls-4" x="162.57" y="84.36" width="15.64" height="15.64"/><rect class="cls-4" x="162.57" y="100" width="15.64" height="15.64"/><rect class="cls-4" x="162.57" y="115.64" width="15.64" height="15.64"/><rect class="cls-4" x="162.57" y="131.29" width="15.64" height="15.64"/><rect class="cls-4" x="115.64" y="162.57" width="15.64" height="15.64"/><rect class="cls-4" x="162.57" y="146.93" width="15.64" height="15.64"/><rect class="cls-4" x="115.64" y="100" width="15.64" height="15.64"/><rect class="cls-4" x="146.93" y="100" width="15.64" height="15.64"/><rect class="cls-4" x="162.57" y="162.57" width="15.64" height="15.64"/><rect class="cls-4" x="115.64" y="178.22" width="15.64" height="15.64"/><rect class="cls-4" x="146.93" y="178.22" width="15.64" height="15.64"/><rect class="cls-4" x="146.93" y="162.57" width="15.64" height="15.64"/><rect class="cls-4" x="131.29" y="162.57" width="15.64" height="15.64"/><rect class="cls-4" x="131.29" y="178.22" width="15.64" height="15.64"/><rect class="cls-4" x="162.57" y="178.22" width="15.64" height="15.64"/><rect class="cls-4" x="178.22" y="84.36" width="15.64" height="15.64"/><rect class="cls-4" x="178.22" y="100" width="15.64" height="15.64"/><rect class="cls-4" x="178.22" y="115.64" width="15.64" height="15.64"/><rect class="cls-4" x="178.22" y="131.29" width="15.64" height="15.64"/><rect class="cls-4" x="178.22" y="146.93" width="15.64" height="15.64"/><rect class="cls-4" x="178.22" y="162.57" width="15.64" height="15.64"/><rect class="cls-4" x="178.22" y="178.22" width="15.64" height="15.64"/><rect class="cls-4" x="100" y="84.36" width="15.64" height="15.64"/><rect class="cls-4" x="100" y="100" width="15.64" height="15.64"/><rect class="cls-4" x="100" y="115.64" width="15.64" height="15.64"/><rect class="cls-4" x="100" y="131.29" width="15.64" height="15.64"/><rect class="cls-4" x="100" y="146.93" width="15.64" height="15.64"/><rect class="cls-4" x="100" y="162.57" width="15.64" height="15.64"/><rect class="cls-4" x="100" y="178.22" width="15.64" height="15.64"/><rect class="cls-4" x="84.36" y="84.36" width="15.64" height="15.64"/><rect class="cls-4" x="84.36" y="84.36" width="109.5" height="109.5"/><rect class="cls-4" x="84.36" y="100" width="15.64" height="15.64"/><rect class="cls-4" x="84.36" y="115.64" width="15.64" height="15.64"/><rect class="cls-4" x="84.36" y="131.29" width="15.64" height="15.64"/><rect class="cls-4" x="84.36" y="146.93" width="15.64" height="15.64"/><rect class="cls-4" x="84.36" y="162.57" width="15.64" height="15.64"/><rect class="cls-4" x="84.36" y="178.22" width="15.64" height="15.64"/><rect class="cls-2" x="162.57" y="178.22" width="15.64" height="15.64"/><rect class="cls-2" x="131.29" y="146.93" width="15.64" height="15.64"/><rect class="cls-2" x="146.93" y="146.93" width="15.64" height="15.64"/><rect class="cls-2" x="115.64" y="146.93" width="46.93" height="15.64"/><rect class="cls-2" x="131.29" y="115.64" width="15.64" height="15.64"/><rect class="cls-2" x="146.93" y="115.64" width="15.64" height="15.64"/><rect class="cls-2" x="115.64" y="115.64" width="46.93" height="15.64"/><rect class="cls-2" x="100" y="178.22" width="15.64" height="15.64"/><rect class="cls-3" x="100" y="115.64" width="15.64" height="62.57"/><rect class="cls-3" x="100" y="131.29" width="78.22" height="15.64"/><rect class="cls-3" x="115.64" y="131.29" width="15.64" height="15.64"/><rect class="cls-3" x="131.29" y="131.29" width="15.64" height="15.64"/><rect class="cls-3" x="131.29" y="100" width="15.64" height="15.64"/><rect class="cls-3" x="115.64" y="100" width="46.93" height="15.64"/><rect class="cls-3" x="146.93" y="100" width="15.64" height="15.64"/><rect class="cls-3" x="146.93" y="131.29" width="15.64" height="15.64"/><rect class="cls-3" x="162.57" y="115.64" width="15.64" height="15.64"/><rect class="cls-3" x="162.57" y="131.29" width="15.64" height="15.64"/><rect class="cls-3" x="100" y="146.93" width="15.64" height="15.64"/><rect class="cls-3" x="162.57" y="146.93" width="15.64" height="15.64"/><rect class="cls-3" x="100" y="162.57" width="15.64" height="15.64"/><rect class="cls-3" x="162.57" y="115.64" width="15.64" height="62.57"/></svg>