<svg id="Logo" xmlns="http://www.w3.org/2000/svg" viewBox="0 0 200 200"><defs><style>.cls-1{fill:#1c75bc;}.cls-2{fill:#58595b;}.cls-3{fill:#f1f2f2;}</style></defs><title>pixel-fb-logo</title><rect class="cls-1" x="86.69" y="6.14" width="26.82" height="26.82"/><rect class="cls-1" x="59.87" y="6.14" width="26.82" height="26.82"/><rect class="cls-1" x="113.5" y="6.14" width="26.82" height="26.82"/><rect class="cls-1" x="140.32" y="6.14" width="26.82" height="26.82"/><rect class="cls-1" x="140.32" y="32.96" width="26.82" height="26.82"/><rect class="cls-1" x="140.32" y="59.78" width="26.82" height="26.82"/><rect class="cls-1" x="113.5" y="86.59" width="26.82" height="26.82"/><rect class="cls-1" x="140.32" y="86.59" width="26.82" height="26.82"/><rect class="cls-1" x="113.5" y="113.41" width="26.82" height="26.82"/><rect class="cls-1" x="140.32" y="113.41" width="26.82" height="26.82"/><rect class="cls-1" x="86.69" y="140.22" width="26.82" height="26.82"/><rect class="cls-1" x="113.5" y="140.22" width="26.82" height="26.82"/><rect class="cls-1" x="140.32" y="140.22" width="26.82" height="26.82"/><rect class="cls-1" x="86.69" y="167.04" width="26.82" height="26.82"/><rect class="cls-1" x="113.5" y="167.04" width="26.82" height="26.82"/><rect class="cls-1" x="140.32" y="167.04" width="26.82" height="26.82"/><rect class="cls-1" x="167.14" y="6.14" width="26.82" height="26.82"/><rect class="cls-1" x="167.14" y="32.96" width="26.82" height="26.82"/><rect class="cls-1" x="167.14" y="59.78" width="26.82" height="26.82"/><rect class="cls-1" x="167.14" y="86.59" width="26.82" height="26.82"/><rect class="cls-1" x="6.24" y="6.14" width="187.72" height="187.72"/><rect class="cls-1" x="167.14" y="113.41" width="26.82" height="26.82"/><rect class="cls-1" x="167.14" y="140.22" width="26.82" height="26.82"/><rect class="cls-1" x="167.14" y="167.04" width="26.82" height="26.82"/><rect class="cls-1" x="33.05" y="6.14" width="26.82" height="26.82"/><rect class="cls-1" x="33.05" y="32.96" width="26.82" height="26.82"/><rect class="cls-1" x="59.87" y="32.96" width="26.82" height="26.82"/><rect class="cls-1" x="33.05" y="59.78" width="26.82" height="26.82"/><rect class="cls-1" x="33.05" y="86.59" width="26.82" height="26.82"/><rect class="cls-1" x="33.05" y="113.41" width="26.82" height="26.82"/><rect class="cls-1" x="33.05" y="140.22" width="26.82" height="26.82"/><rect class="cls-1" x="33.05" y="167.04" width="26.82" height="26.82"/><rect class="cls-1" x="6.24" y="6.14" width="26.82" height="26.82"/><rect class="cls-1" x="6.24" y="32.96" width="26.82" height="26.82"/><rect class="cls-1" x="6.24" y="59.78" width="26.82" height="26.82"/><rect class="cls-1" x="6.24" y="86.59" width="26.82" height="26.82"/><rect class="cls-1" x="6.24" y="113.41" width="26.82" height="26.82"/><rect class="cls-1" x="6.24" y="140.22" width="26.82" height="26.82"/><rect class="cls-1" x="6.24" y="167.04" width="26.82" height="26.82"/><rect class="cls-2" x="113.5" y="59.78" width="26.82" height="26.82"/><rect class="cls-2" x="86.69" y="59.78" width="53.63" height="26.82"/><rect class="cls-2" x="86.69" y="113.41" width="26.82" height="26.82"/><rect class="cls-2" x="59.87" y="167.04" width="26.82" height="26.82"/><rect class="cls-3" x="59.87" y="59.78" width="26.82" height="26.82"/><rect class="cls-3" x="59.87" y="86.59" width="26.82" height="26.82"/><rect class="cls-3" x="59.87" y="113.41" width="26.82" height="26.82"/><rect class="cls-3" x="59.87" y="59.78" width="26.82" height="107.27"/><rect class="cls-3" x="86.69" y="32.96" width="53.63" height="26.82"/><rect class="cls-3" x="59.87" y="86.59" width="53.63" height="26.82"/><rect class="cls-3" x="113.5" y="32.96" width="26.82" height="26.82"/></svg>