<svg id="Layer_4" data-name="Layer 4" xmlns="http://www.w3.org/2000/svg" viewBox="0 0 200 200"><defs><style>.cls-1{fill:#91bce4;}.cls-2{fill:#808285;}.cls-3{fill:#939598;}.cls-4{fill:#a7a9ac;}.cls-5{fill:#bcbec0;}.cls-6{fill:#6d6e71;}.cls-7{fill:#fbb040;}.cls-8{fill:#be1e2d;}.cls-9{fill:#d1d3d4;}.cls-10{fill:#f1f2f2;}.cls-11{fill:#2bb673;}</style></defs><title>pixel-world</title><rect class="cls-1" x="42.7" y="46.5" width="112.25" height="112.25"/><rect class="cls-2" x="50.98" y="41.77" width="4.73" height="4.73"/><rect class="cls-2" x="55.71" y="37.04" width="4.73" height="4.73"/><rect class="cls-3" x="60.44" y="37.04" width="4.73" height="4.73"/><rect class="cls-3" x="65.17" y="32.39" width="4.73" height="4.73"/><rect class="cls-3" x="65.17" y="27.65" width="4.73" height="4.73"/><rect class="cls-2" x="60.44" y="32.31" width="4.73" height="4.73"/><rect class="cls-2" x="60.44" y="27.57" width="4.73" height="4.73"/><rect class="cls-3" x="55.71" y="41.77" width="4.73" height="4.73"/><rect class="cls-4" x="60.44" y="41.77" width="4.73" height="4.73"/><rect class="cls-4" x="65.17" y="37.04" width="4.73" height="4.73"/><rect class="cls-4" x="65.17" y="41.77" width="4.73" height="4.73"/><rect class="cls-4" x="69.9" y="37.04" width="4.73" height="4.73"/><rect class="cls-4" x="74.63" y="37.04" width="4.73" height="4.73"/><rect class="cls-4" x="79.37" y="37.04" width="4.73" height="4.73"/><rect class="cls-5" x="79.37" y="32.31" width="4.73" height="4.73"/><rect class="cls-4" x="74.63" y="32.31" width="4.73" height="4.73"/><rect class="cls-4" x="74.63" y="27.65" width="4.73" height="4.73"/><rect class="cls-5" x="74.63" y="22.92" width="4.73" height="4.73"/><rect class="cls-5" x="79.37" y="27.65" width="4.73" height="4.73"/><rect class="cls-5" x="93.56" y="27.61" width="4.73" height="4.73"/><rect class="cls-5" x="93.56" y="32.31" width="4.73" height="4.73"/><rect class="cls-5" x="98.29" y="37.04" width="4.73" height="4.73"/><rect class="cls-5" x="98.29" y="41.77" width="4.73" height="4.73"/><rect class="cls-6" x="37.97" y="91.12" width="4.73" height="4.73" transform="translate(-53.15 133.82) rotate(-90)"/><rect class="cls-6" x="33.24" y="91.12" width="4.73" height="4.73" transform="translate(-57.88 129.09) rotate(-90)"/><rect class="cls-6" x="37.97" y="86.39" width="4.73" height="4.73" transform="translate(-48.42 129.09) rotate(-90)"/><rect class="cls-6" x="33.24" y="86.39" width="4.73" height="4.73" transform="translate(-53.15 124.36) rotate(-90)"/><rect class="cls-7" x="28.51" y="91.12" width="4.73" height="4.73" transform="translate(-62.62 124.36) rotate(-90)"/><rect class="cls-6" x="23.77" y="91.12" width="4.73" height="4.73" transform="translate(-67.35 119.63) rotate(-90)"/><rect class="cls-6" x="28.51" y="86.39" width="4.73" height="4.73" transform="translate(-57.88 119.63) rotate(-90)"/><rect class="cls-6" x="23.77" y="86.39" width="4.73" height="4.73" transform="translate(-62.62 114.89) rotate(-90)"/><rect class="cls-6" x="37.97" y="81.66" width="4.73" height="4.73" transform="translate(-43.69 124.36) rotate(-90)"/><rect class="cls-7" x="33.24" y="81.66" width="4.73" height="4.73" transform="translate(-48.42 119.63) rotate(-90)"/><rect class="cls-6" x="28.51" y="81.66" width="4.73" height="4.73" transform="translate(-53.15 114.89) rotate(-90)"/><rect class="cls-6" x="23.77" y="81.66" width="4.73" height="4.73" transform="translate(-57.88 110.16) rotate(-90)"/><rect class="cls-4" x="178.47" y="129.49" width="4.73" height="4.73" transform="translate(48.98 312.7) rotate(-90)"/><rect class="cls-4" x="173.74" y="129.49" width="4.73" height="4.73" transform="translate(44.24 307.96) rotate(-90)"/><rect class="cls-4" x="178.47" y="124.76" width="4.73" height="4.73" transform="translate(53.71 307.96) rotate(-90)"/><rect class="cls-8" x="173.74" y="124.76" width="4.73" height="4.73" transform="translate(48.98 303.23) rotate(-90)"/><rect class="cls-8" x="169.01" y="129.49" width="4.73" height="4.73" transform="translate(39.51 303.23) rotate(-90)"/><rect class="cls-4" x="164.28" y="129.49" width="4.73" height="4.73" transform="translate(34.78 298.5) rotate(-90)"/><rect class="cls-8" x="169.01" y="124.76" width="4.73" height="4.73" transform="translate(44.24 298.5) rotate(-90)"/><rect class="cls-8" x="164.28" y="124.76" width="4.73" height="4.73" transform="translate(39.51 293.77) rotate(-90)"/><rect class="cls-4" x="178.47" y="120.03" width="4.73" height="4.73" transform="translate(58.44 303.23) rotate(-90)"/><rect class="cls-4" x="173.74" y="120.03" width="4.73" height="4.73" transform="translate(53.71 298.5) rotate(-90)"/><rect class="cls-8" x="169.01" y="120.03" width="4.73" height="4.73" transform="translate(48.98 293.77) rotate(-90)"/><rect class="cls-4" x="164.28" y="120.03" width="4.73" height="4.73" transform="translate(44.24 289.04) rotate(-90)"/><rect class="cls-4" x="159.66" y="129.49" width="4.73" height="4.73" transform="translate(30.17 293.89) rotate(-90)"/><rect class="cls-4" x="178.47" y="134.23" width="4.73" height="4.73" transform="translate(44.24 317.43) rotate(-90)"/><rect class="cls-4" x="173.74" y="134.23" width="4.73" height="4.73" transform="translate(39.51 312.7) rotate(-90)"/><rect class="cls-4" x="169.01" y="134.23" width="4.73" height="4.73" transform="translate(34.78 307.96) rotate(-90)"/><rect class="cls-4" x="164.28" y="134.23" width="4.73" height="4.73" transform="translate(30.05 303.23) rotate(-90)"/><rect class="cls-4" x="159.66" y="134.23" width="4.73" height="4.73" transform="translate(25.44 298.62) rotate(-90)"/><rect class="cls-4" x="159.66" y="124.76" width="4.73" height="4.73" transform="translate(34.9 289.16) rotate(-90)"/><rect class="cls-4" x="159.66" y="120.03" width="4.73" height="4.73" transform="translate(39.63 284.43) rotate(-90)"/><rect class="cls-4" x="178.47" y="115.3" width="4.73" height="4.73" transform="translate(63.17 298.5) rotate(-90)"/><rect class="cls-4" x="173.74" y="115.3" width="4.73" height="4.73" transform="translate(58.44 293.77) rotate(-90)"/><rect class="cls-4" x="169.01" y="115.3" width="4.73" height="4.73" transform="translate(53.71 289.04) rotate(-90)"/><rect class="cls-4" x="164.28" y="115.3" width="4.73" height="4.73" transform="translate(48.98 284.31) rotate(-90)"/><rect class="cls-4" x="159.66" y="115.3" width="4.73" height="4.73" transform="translate(44.36 279.69) rotate(-90)"/><rect class="cls-4" x="154.93" y="129.49" width="4.73" height="4.73" transform="translate(25.44 289.16) rotate(-90)"/><rect class="cls-4" x="154.93" y="134.23" width="4.73" height="4.73" transform="translate(20.71 293.89) rotate(-90)"/><rect class="cls-4" x="121.95" y="182.9" width="4.73" height="4.73" transform="translate(309.58 60.95) rotate(90)"/><rect class="cls-4" x="117.22" y="182.9" width="4.73" height="4.73" transform="translate(304.85 65.69) rotate(90)"/><rect class="cls-4" x="117.22" y="178.17" width="4.73" height="4.73" transform="translate(300.12 60.95) rotate(90)"/><rect class="cls-4" x="121.95" y="178.17" width="4.73" height="4.73" transform="translate(304.85 56.22) rotate(90)"/><rect class="cls-4" x="126.68" y="178.17" width="4.73" height="4.73" transform="translate(309.58 51.49) rotate(90)"/><rect class="cls-4" x="112.49" y="178.17" width="4.73" height="4.73" transform="translate(295.39 65.69) rotate(90)"/><rect class="cls-5" x="107.75" y="178.17" width="4.73" height="4.73" transform="translate(290.66 70.42) rotate(90)"/><rect class="cls-4" x="112.49" y="182.9" width="4.73" height="4.73" transform="translate(300.12 70.42) rotate(90)"/><rect class="cls-3" x="107.75" y="187.63" width="4.73" height="4.73" transform="translate(300.12 79.88) rotate(90)"/><rect class="cls-3" x="103.02" y="187.63" width="4.73" height="4.73" transform="translate(295.39 84.61) rotate(90)"/><rect class="cls-2" x="102.05" y="186.96" width="4.73" height="4.73" transform="translate(293.74 84.91) rotate(90)"/><rect class="cls-2" x="97.32" y="186.96" width="4.73" height="4.73" transform="translate(289.01 89.64) rotate(90)"/><rect class="cls-5" x="103.02" y="178.17" width="4.73" height="4.73" transform="translate(285.92 75.15) rotate(90)"/><rect class="cls-9" x="103.02" y="173.44" width="4.73" height="4.73" transform="translate(281.19 70.42) rotate(90)"/><rect class="cls-9" x="98.29" y="173.44" width="4.73" height="4.73" transform="translate(276.46 75.15) rotate(90)"/><rect class="cls-9" x="98.29" y="168.71" width="4.73" height="4.73" transform="translate(271.73 70.42) rotate(90)"/><rect class="cls-9" x="93.56" y="168.71" width="4.73" height="4.73" transform="translate(267 75.15) rotate(90)"/><rect class="cls-4" x="107.75" y="182.9" width="4.73" height="4.73" transform="translate(295.39 75.15) rotate(90)"/><rect class="cls-4" x="103.02" y="182.9" width="4.73" height="4.73" transform="translate(290.66 79.88) rotate(90)"/><rect class="cls-4" x="98.29" y="182.9" width="4.73" height="4.73" transform="translate(285.92 84.61) rotate(90)"/><rect class="cls-4" x="93.56" y="178.17" width="4.73" height="4.73" transform="translate(276.46 84.61) rotate(90)"/><rect class="cls-4" x="98.29" y="178.17" width="4.73" height="4.73" transform="translate(281.19 79.88) rotate(90)"/><rect class="cls-4" x="93.56" y="182.9" width="4.73" height="4.73" transform="translate(281.19 89.34) rotate(90)"/><rect class="cls-4" x="88.83" y="178.17" width="4.73" height="4.73" transform="translate(271.73 89.34) rotate(90)"/><rect class="cls-4" x="88.83" y="182.9" width="4.73" height="4.73" transform="translate(276.46 94.07) rotate(90)"/><rect class="cls-4" x="84.1" y="178.17" width="4.73" height="4.73" transform="translate(267 94.07) rotate(90)"/><rect class="cls-4" x="79.37" y="178.17" width="4.73" height="4.73" transform="translate(262.27 98.81) rotate(90)"/><rect class="cls-4" x="74.63" y="178.17" width="4.73" height="4.73" transform="translate(257.54 103.54) rotate(90)"/><rect class="cls-4" x="74.63" y="182.9" width="4.73" height="4.73" transform="translate(262.27 108.27) rotate(90)"/><rect class="cls-4" x="154.93" y="124.76" width="4.73" height="4.73" transform="translate(30.17 284.43) rotate(-90)"/><rect class="cls-4" x="154.93" y="120.03" width="4.73" height="4.73" transform="translate(34.9 279.69) rotate(-90)"/><rect class="cls-4" x="154.93" y="115.3" width="4.73" height="4.73" transform="translate(39.63 274.96) rotate(-90)"/><rect class="cls-6" x="37.97" y="69.72" width="4.73" height="4.73" transform="translate(-31.76 112.42) rotate(-90)"/><rect class="cls-6" x="33.24" y="69.72" width="4.73" height="4.73" transform="translate(-36.49 107.69) rotate(-90)"/><rect class="cls-6" x="37.97" y="74.94" width="4.73" height="4.73" transform="translate(-36.97 117.64) rotate(-90)"/><rect class="cls-6" x="33.24" y="74.94" width="4.73" height="4.73" transform="translate(-41.7 112.9) rotate(-90)"/><rect class="cls-6" x="37.97" y="64.99" width="4.73" height="4.73" transform="translate(-27.02 107.69) rotate(-90)"/><rect class="cls-7" x="33.24" y="64.99" width="4.73" height="4.73" transform="translate(-31.76 102.96) rotate(-90)"/><rect class="cls-6" x="28.51" y="69.72" width="4.73" height="4.73" transform="translate(-41.22 102.96) rotate(-90)"/><rect class="cls-6" x="28.51" y="64.99" width="4.73" height="4.73" transform="translate(-36.49 98.23) rotate(-90)"/><rect class="cls-6" x="23.77" y="64.99" width="4.73" height="4.73" transform="translate(-41.22 93.5) rotate(-90)"/><rect class="cls-6" x="19.16" y="64.99" width="4.73" height="4.73" transform="translate(-45.83 88.88) rotate(-90)"/><rect class="cls-4" x="13.12" y="64.99" width="4.73" height="4.73" transform="translate(-51.88 82.84) rotate(-90)"/><rect class="cls-5" x="8.38" y="64.99" width="4.73" height="4.73" transform="translate(-56.61 78.11) rotate(-90)"/><rect class="cls-5" x="8.38" y="60.26" width="4.73" height="4.73" transform="translate(-51.88 73.38) rotate(-90)"/><rect class="cls-9" x="3.65" y="60.26" width="4.73" height="4.73" transform="translate(-56.61 68.64) rotate(-90)"/><rect class="cls-6" x="37.97" y="60.26" width="4.73" height="4.73" transform="translate(-22.29 102.96) rotate(-90)"/><rect class="cls-6" x="33.24" y="60.26" width="4.73" height="4.73" transform="translate(-27.02 98.23) rotate(-90)"/><rect class="cls-7" x="28.51" y="60.26" width="4.73" height="4.73" transform="translate(-31.76 93.5) rotate(-90)"/><rect class="cls-4" x="88.83" y="27.61" width="4.73" height="4.73"/><rect class="cls-4" x="88.83" y="37.04" width="4.73" height="4.73"/><rect class="cls-4" x="88.83" y="32.31" width="4.73" height="4.73"/><rect class="cls-4" x="93.56" y="37.04" width="4.73" height="4.73"/><rect class="cls-4" x="93.56" y="41.77" width="4.73" height="4.73"/><rect class="cls-4" x="88.83" y="22.96" width="4.73" height="4.73"/><rect class="cls-5" x="88.83" y="18.23" width="4.73" height="4.73"/><rect class="cls-5" x="93.56" y="22.96" width="4.73" height="4.73"/><rect class="cls-5" x="84.1" y="37.04" width="4.73" height="4.73"/><rect class="cls-5" x="88.83" y="41.77" width="4.73" height="4.73"/><rect class="cls-4" x="69.9" y="32.31" width="4.73" height="4.73"/><rect class="cls-4" x="69.9" y="27.65" width="4.73" height="4.73"/><rect class="cls-3" x="65.17" y="18.27" width="4.73" height="4.73"/><rect class="cls-4" x="69.9" y="18.27" width="4.73" height="4.73"/><rect class="cls-10" x="69.9" y="13.54" width="4.73" height="4.73"/><rect class="cls-2" x="65.17" y="22.92" width="4.73" height="4.73"/><rect class="cls-6" x="172.69" y="21.44" width="4.73" height="4.73"/><rect class="cls-2" x="172.69" y="35.51" width="4.73" height="4.73"/><rect class="cls-2" x="172.69" y="40.24" width="4.73" height="4.73"/><rect class="cls-2" x="177.42" y="40.24" width="4.73" height="4.73"/><rect class="cls-3" x="177.42" y="30.86" width="4.73" height="4.73"/><rect class="cls-3" x="177.42" y="35.59" width="4.73" height="4.73"/><rect class="cls-2" x="177.42" y="26.13" width="4.73" height="4.73"/><rect class="cls-2" x="172.69" y="30.78" width="4.73" height="4.73"/><rect class="cls-6" x="172.69" y="26.05" width="4.73" height="4.73"/><rect class="cls-4" x="182.15" y="30.86" width="4.73" height="4.73"/><rect class="cls-3" x="182.15" y="26.17" width="4.73" height="4.73"/><rect class="cls-3" x="182.15" y="40.28" width="4.73" height="4.73"/><rect class="cls-4" x="182.15" y="35.59" width="4.73" height="4.73"/><rect class="cls-2" x="182.15" y="21.44" width="4.73" height="4.73"/><rect class="cls-4" x="186.88" y="30.86" width="4.73" height="4.73"/><rect class="cls-4" x="186.88" y="26.17" width="4.73" height="4.73"/><rect class="cls-5" x="186.88" y="40.28" width="4.73" height="4.73"/><rect class="cls-4" x="186.88" y="35.59" width="4.73" height="4.73"/><rect class="cls-3" x="186.88" y="21.44" width="4.73" height="4.73"/><rect class="cls-4" x="191.62" y="30.86" width="4.73" height="4.73"/><rect class="cls-4" x="191.62" y="26.17" width="4.73" height="4.73"/><rect class="cls-9" x="191.62" y="40.28" width="4.73" height="4.73"/><rect class="cls-5" x="191.62" y="35.59" width="4.73" height="4.73"/><rect class="cls-4" x="191.62" y="21.44" width="4.73" height="4.73"/><rect class="cls-6" x="177.42" y="21.44" width="4.73" height="4.73"/><rect class="cls-4" x="69.9" y="22.92" width="4.73" height="4.73"/><rect class="cls-3" x="79.37" y="22.92" width="4.73" height="4.73"/><rect class="cls-4" x="74.63" y="37.04" width="4.73" height="4.73"/><rect class="cls-4" x="84.1" y="22.92" width="4.73" height="4.73"/><rect class="cls-4" x="84.1" y="27.57" width="4.73" height="4.73"/><rect class="cls-4" x="84.1" y="32.31" width="4.73" height="4.73"/><rect class="cls-3" x="79.37" y="13.54" width="4.73" height="4.73"/><rect class="cls-4" x="84.1" y="13.54" width="4.73" height="4.73"/><rect class="cls-10" x="84.1" y="8.81" width="4.73" height="4.73"/><rect class="cls-2" x="79.37" y="18.19" width="4.73" height="4.73"/><rect class="cls-4" x="84.1" y="18.19" width="4.73" height="4.73"/><rect class="cls-4" x="69.9" y="41.77" width="4.73" height="4.73"/><rect class="cls-4" x="74.63" y="41.77" width="4.73" height="4.73"/><rect class="cls-4" x="79.37" y="41.77" width="4.73" height="4.73"/><rect class="cls-4" x="84.1" y="41.77" width="4.73" height="4.73"/><rect class="cls-11" x="42.7" y="65.67" width="44.94" height="33.66"/><rect class="cls-11" x="116.44" y="104.99" width="38.49" height="33.66"/><rect class="cls-11" x="138.1" y="74.75" width="16.83" height="16.83"/><rect class="cls-11" x="123.05" y="138.65" width="31.88" height="20.1"/><rect class="cls-11" x="42.7" y="54.77" width="33.11" height="10.91"/><rect class="cls-10" x="42.7" y="46.5" width="37.32" height="8.27"/><rect class="cls-10" x="107.04" y="46.5" width="11.15" height="8.27"/><rect class="cls-11" x="75.78" y="99.33" width="7.16" height="7.16"/><rect class="cls-11" x="42.7" y="99.33" width="7.16" height="7.16"/><rect class="cls-11" x="42.7" y="106.49" width="7.16" height="7.16"/><rect class="cls-11" x="49.86" y="99.33" width="7.16" height="7.16"/><rect class="cls-11" x="42.7" y="117.19" width="28.38" height="28.38"/><rect class="cls-11" x="42.7" y="145.57" width="20.11" height="13.18"/></svg>